# xmcd
#
# Track frame offsets: 
#        150
#        13820
#        31702
#        45210
#        64023
#        77947
#        92984
#        108136
#        125843
#        151475
#        168737
#
# Disc length: 2438 seconds
#
# Revision: 0
# Processed by: cddbd v1.5.2PL0 Copyright (c) Steve Scherf et al.
# Submitted via: ExactAudioCopy v0.95b4
#
DISCID=8709840b
DTITLE=Jeremy Edwards and the Dust Radio Band - Stay Hungry
DYEAR=2007
DGENRE=Blues
TTITLE0=All shot down
TTITLE1=If I call your name
TTITLE2=Up all night
TTITLE3=Gaza blues
TTITLE4=Send me home
TTITLE5=You need love
TTITLE6=Stay Hungry
TTITLE7=The same hands
TTITLE8=Kiss someone
TTITLE9=I'm commin' home
TTITLE10=The simple life
EXTD=
EXTT0=
EXTT1=
EXTT2=
EXTT3=
EXTT4=
EXTT5=
EXTT6=
EXTT7=
EXTT8=
EXTT9=
EXTT10=
PLAYORDER=
